<?xml version="1.0" encoding="UTF-8" standalone="no"?>
<svg
   xmlns:dc="http://purl.org/dc/elements/1.1/"
   xmlns:cc="http://creativecommons.org/ns#"
   xmlns:rdf="http://www.w3.org/1999/02/22-rdf-syntax-ns#"
   xmlns:svg="http://www.w3.org/2000/svg"
   xmlns="http://www.w3.org/2000/svg"
   xmlns:sodipodi="http://sodipodi.sourceforge.net/DTD/sodipodi-0.dtd"
   xmlns:inkscape="http://www.inkscape.org/namespaces/inkscape"
   width="300px"
   height="300px"
   viewBox="0 0 300 300"
   version="1.1"
   id="SVGRoot"
   sodipodi:docname="favicon7.svg"
   inkscape:version="1.0.1 (c497b03c, 2020-09-10)">
  <defs
     id="defs1567" />
  <sodipodi:namedview
     id="base"
     pagecolor="#ffffff"
     bordercolor="#666666"
     borderopacity="1.0"
     inkscape:pageopacity="0.0"
     inkscape:pageshadow="2"
     inkscape:zoom="0.35"
     inkscape:cx="400"
     inkscape:cy="560"
     inkscape:document-units="px"
     inkscape:current-layer="layer1"
     inkscape:document-rotation="0"
     showgrid="false"
     inkscape:window-width="1252"
     inkscape:window-height="855"
     inkscape:window-x="0"
     inkscape:window-y="23"
     inkscape:window-maximized="0" />
  <metadata
     id="metadata1570">
    <rdf:RDF>
      <cc:Work
         rdf:about="">
        <dc:format>image/svg+xml</dc:format>
        <dc:type
           rdf:resource="http://purl.org/dc/dcmitype/StillImage" />
        <dc:title></dc:title>
      </cc:Work>
    </rdf:RDF>
  </metadata>
  <g
     inkscape:label="Layer 1"
     inkscape:groupmode="layer"
     id="layer1">
    <polygon
       points="425.2,106.7 85.6,200.4 425.2,294.2 764.8,200.4 "
       id="polygon10"
       style="fill:#f10000;fill-opacity:1"
       transform="matrix(0.40037274,0,0,0.44114109,-18.809915,-32.134042)" />
    <polygon
       points="107,658.8 420.5,745.4 420.5,401.4 107,314.8 "
       id="polygon12"
       style="fill:#f10000;fill-opacity:1"
       transform="matrix(0.40037274,0,0,0.44114109,-18.809915,-32.134042)" />
    <polygon
       points="420.5,302.7 172.5,234.2 72.6,206.6 72.6,295.5 420.5,391.6 "
       id="polygon14"
       style="fill:#f10000;fill-opacity:1"
       transform="matrix(0.40037274,0,0,0.44114109,-18.809915,-32.134042)" />
    <polygon
       points="429.9,745.4 743.5,658.8 743.5,314.8 429.9,401.4 "
       id="polygon16"
       style="fill:#f10000;fill-opacity:1"
       transform="matrix(0.40037274,0,0,0.44114109,-18.809915,-32.134042)" />
    <polygon
       points="777.8,295.5 777.8,206.6 677.9,234.2 429.9,302.7 429.9,391.6 "
       id="polygon18"
       style="fill:#f10000;fill-opacity:1"
       transform="matrix(0.40037274,0,0,0.44114109,-18.809915,-32.134042)" />
  </g>
</svg>
